<svg height="30" preserveAspectRatio="xMidYMid" viewBox="0 0 144.007 30" width="144.007" xmlns:xlink="http://www.w3.org/1999/xlink" xmlns="http://www.w3.org/2000/svg">
    <path
        d="M61.972,4.117c-6.059,0-10.987,4.848-10.987,10.814c0,5.834,5.017,10.761,10.958,10.761
		c2.487,0,4.88-0.886,6.932-2.564v-1.285c-1.651,1.709-4.553,2.953-6.99,2.953c-2.439,0-5.053-1.12-6.996-3.002
		c-1.859-1.771-2.926-4.23-2.926-6.748c0-5.44,4.545-10.035,9.922-10.035c2.526,0,5.266,1.215,6.99,3.062v-1.28
		C67.005,5.089,64.494,4.117,61.972,4.117"/>
    <path d="M87.122,25.408h0.981L79.446,4.003l-8.681,21.405h0.978l2.866-7.032h9.645L87.122,25.408z M83.9,17.477
		h-8.936l4.481-11.024L83.9,17.477z"/>
    <path
        d="M90.702,25.408h0.98V15.252h2.602c1.456,0,3.301-0.148,4.643-1.315c1.062-0.885,1.722-2.451,1.722-4.084
		c0-1.722-0.661-3.234-1.863-4.252c-1.303-1.112-2.937-1.204-4.501-1.204h-3.582V25.408z M94.342,14.356h-2.659V5.293h2.433
		c1.2,0,2.694,0,3.861,0.891c1.057,0.778,1.69,2.133,1.69,3.612c0,1.328-0.502,2.484-1.453,3.345
		C97.092,14.15,95.855,14.356,94.342,14.356"/>
    <rect height="21.011" width="0.979" x="103.451" y="4.397"/>
    <polygon points="112.431,25.408 113.412,25.408 113.412,5.293 118.942,5.293 118.942,4.397 106.899,4.397
		106.899,5.293 112.431,5.293 "/>
    <path d="M134,25.408h0.979l-8.657-21.405l-8.682,21.405h0.98l2.866-7.032h9.646L134,25.408z M130.777,17.477h-8.935
		l4.479-11.024L130.777,17.477z"/>
    <polygon points="137.58,25.408 144.007,25.408 144.007,24.512 138.56,24.512 138.56,4.397 137.58,4.397 "/>
    <rect height="0.462" width="144.007" y="29.538"/>
    <rect height="0.456" width="144.007"/>
    <path
        d="M0,29.539h46.421V0.457H0V29.539z M22.013,25.883c-1.269,0-2.519-0.192-3.641-0.71
		c-0.783-0.292-1.38-0.788-2.22-1.447c-1.258-1.042-7.198-7.453-8.543-9.114H7.464v2.746c0,2.695,0,4.907,0.144,6.086
		c0.084,0.817,0.242,1.427,1.092,1.538c0.386,0.062,0.837,0.116,1.089,0.116c0.169,0,0.228,0.083,0.228,0.169
		c0,0.142-0.141,0.223-0.449,0.223c-1.375,0-3-0.081-3.224-0.081c-0.225,0-1.854,0.081-2.693,0.081c-0.307,0-0.443-0.058-0.443-0.223
		c0-0.086,0.054-0.169,0.225-0.169c0.248,0,0.582-0.055,0.835-0.116c0.561-0.111,0.703-0.721,0.813-1.538
		c0.141-1.179,0.141-3.391,0.141-6.086v-4.927c0-4.37,0-5.156-0.056-6.052C5.111,5.421,4.886,4.978,3.961,4.778
		C3.737,4.724,3.263,4.694,3.011,4.694c-0.111,0-0.225-0.056-0.225-0.164c0-0.173,0.14-0.227,0.45-0.227
		c1.255,0,2.911,0.087,3.08,0.087c0.253,0,1.878-0.087,2.718-0.087c0.311,0,0.446,0.054,0.446,0.227c0,0.108-0.108,0.164-0.223,0.164
		c-0.193,0-0.36,0.03-0.696,0.084C7.804,4.919,7.577,5.396,7.519,6.379c-0.054,0.896-0.054,1.682-0.054,6.052v1.679h0.112
		c0.477-0.529,5.549-5.685,6.559-6.781c0.784-0.809,1.515-1.544,1.515-2.017c0-0.334-0.143-0.507-0.365-0.588
		C15.143,4.665,15.03,4.61,15.03,4.495c0-0.138,0.14-0.192,0.341-0.192c0.559,0,1.428,0.087,2.098,0.087
		c0.138,0,1.669-0.087,2.368-0.087c0.311,0,0.423,0.054,0.423,0.192c0,0.143-0.054,0.199-0.278,0.199
		c-0.159,0-0.692,0.141-1.251,0.395c-1.149,0.504-1.763,1.204-3.024,2.407c-0.705,0.673-5.583,5.44-6.17,6.137
		c0.73,0.815,6.562,6.838,7.71,7.901c0.621,0.583,1.11,1.034,1.52,1.403l0.004,0.009c0.842,0.769,2.582,1.897,3.856,1.897
		c2.686,0,4.01-1.936,4.01-3.729c0-1.93-0.815-3.053-3.225-5.042l-1.258-1.037c-2.973-2.437-3.642-4.179-3.642-6.084
		c0-3,2.237-5.043,5.797-5.043c1.093,0,1.909,0.113,2.608,0.28c0.533,0.114,0.76,0.141,0.98,0.141c0.221,0,0.285,0.06,0.285,0.2
		c0,0.135-0.119,1.063-0.119,2.966c0,0.451-0.053,0.643-0.194,0.643c-0.171,0-0.192-0.135-0.221-0.362
		c-0.028-0.335-0.198-1.093-0.371-1.398c-0.162-0.313-0.923-1.49-3.5-1.49c-1.931,0-3.446,1.206-3.446,3.25
		c0,1.603,0.757,2.581,3.418,4.708l1.653,1.323c2.104,1.679,3.226,3.501,3.226,5.883C28.628,23.219,26.305,25.883,22.013,25.883
		 M36.076,15.9c-0.14,0-0.442,0-0.589-0.021c-0.138,0-0.304-0.06-0.304-0.195c0-0.223,0.166-0.256,0.753-0.256
		c2.722,0,4.851-1.99,4.851-4.571c0-0.923-0.087-2.796-1.571-4.311C37.73,5.031,36.021,5.14,35.376,5.14
		c-0.478,0-0.952,0.059-1.207,0.172c-0.166,0.058-0.224,0.254-0.224,0.532v11.514c0,2.695,0,4.907,0.145,6.086
		c0.079,0.817,0.248,1.427,1.092,1.538c0.392,0.062,1.006,0.116,1.259,0.116c0.167,0,0.225,0.083,0.225,0.169
		c0,0.142-0.14,0.223-0.453,0.223c-1.536,0-3.301-0.081-3.44-0.081c-0.086,0-1.851,0.081-2.693,0.081
		c-0.308,0-0.449-0.058-0.449-0.223c0-0.086,0.057-0.169,0.225-0.169c0.254,0,0.585-0.055,0.841-0.116
		c0.555-0.111,0.7-0.721,0.816-1.538c0.136-1.179,0.136-3.391,0.136-6.086v-4.927c0-4.37,0-5.156-0.054-6.052
		c-0.059-0.958-0.285-1.404-1.208-1.601c-0.218-0.054-0.699-0.084-0.953-0.084c-0.109,0-0.223-0.056-0.223-0.164
		c0-0.173,0.142-0.227,0.448-0.227c1.263,0,2.942,0.087,3.168,0.087c0.617,0,2.242-0.087,3.529-0.087
		c3.504,0,4.763,1.177,5.214,1.595c0.618,0.592,1.402,1.85,1.402,3.339C42.973,13.212,40.059,15.9,36.076,15.9"/>
</svg>
